<svg xmlns="http://www.w3.org/2000/svg" width="1440" height="960" viewBox="0 0 1440 960" role="img" aria-labelledby="title desc">
  <title id="title">CrisisCoord low fidelity crisis command room wireframe</title>
  <desc id="desc">A desktop wireframe showing incident bar, agent rail, Band timeline, handoff map, decision desk, draft review, and evidence summary.</desc>
  <rect width="1440" height="960" fill="#F7F8FA"/>
  <rect x="24" y="20" width="1392" height="72" rx="8" fill="#FFFFFF" stroke="#D7DEE8"/>
  <text x="48" y="52" font-family="Inter, Arial, sans-serif" font-size="18" font-weight="700" fill="#111827">CrisisCoord Command Room</text>
  <text x="48" y="76" font-family="Inter, Arial, sans-serif" font-size="13" fill="#4B5563">High severity data breach / Payment system / Synthetic demo data</text>
  <rect x="858" y="34" width="112" height="28" rx="14" fill="#FEE2E2" stroke="#FCA5A5"/>
  <text x="883" y="53" font-family="Inter, Arial, sans-serif" font-size="12" font-weight="700" fill="#991B1B">Critical</text>
  <rect x="986" y="34" width="156" height="28" rx="14" fill="#FEF3C7" stroke="#FCD34D"/>
  <text x="1007" y="53" font-family="Inter, Arial, sans-serif" font-size="12" font-weight="700" fill="#92400E">72h review clock</text>
  <rect x="1158" y="34" width="226" height="28" rx="14" fill="#E0F2FE" stroke="#7DD3FC"/>
  <text x="1182" y="53" font-family="Inter, Arial, sans-serif" font-size="12" font-weight="700" fill="#075985">Band room active</text>

  <rect x="24" y="116" width="252" height="820" rx="8" fill="#FFFFFF" stroke="#D7DEE8"/>
  <text x="48" y="150" font-family="Inter, Arial, sans-serif" font-size="15" font-weight="700" fill="#111827">Agent Rail</text>
  <g font-family="Inter, Arial, sans-serif" font-size="13">
    <rect x="48" y="176" width="204" height="70" rx="8" fill="#ECFDF5" stroke="#86EFAC"/>
    <text x="64" y="204" font-weight="700" fill="#065F46">Assessment</text>
    <text x="64" y="226" fill="#047857">Complete</text>
    <rect x="48" y="260" width="204" height="70" rx="8" fill="#ECFDF5" stroke="#86EFAC"/>
    <text x="64" y="288" font-weight="700" fill="#065F46">Legal</text>
    <text x="64" y="310" fill="#047857">Obligations posted</text>
    <rect x="48" y="344" width="204" height="70" rx="8" fill="#ECFDF5" stroke="#86EFAC"/>
    <text x="64" y="372" font-weight="700" fill="#065F46">Technical</text>
    <text x="64" y="394" fill="#047857">Scope confirmed</text>
    <rect x="48" y="428" width="204" height="70" rx="8" fill="#FEF3C7" stroke="#FCD34D"/>
    <text x="64" y="456" font-weight="700" fill="#92400E">Communications</text>
    <text x="64" y="478" fill="#92400E">Needs review</text>
    <rect x="48" y="512" width="204" height="70" rx="8" fill="#E0F2FE" stroke="#7DD3FC"/>
    <text x="64" y="540" font-weight="700" fill="#075985">Escalation</text>
    <text x="64" y="562" fill="#0369A1">Decision queued</text>
  </g>
  <rect x="48" y="632" width="204" height="104" rx="8" fill="#F9FAFB" stroke="#E5E7EB"/>
  <text x="64" y="660" font-family="Inter, Arial, sans-serif" font-size="13" font-weight="700" fill="#111827">Dependency Gate</text>
  <text x="64" y="686" font-family="Inter, Arial, sans-serif" font-size="12" fill="#4B5563">Communications unlocks only</text>
  <text x="64" y="706" font-family="Inter, Arial, sans-serif" font-size="12" fill="#4B5563">after Legal + Technical.</text>

  <rect x="300" y="116" width="732" height="820" rx="8" fill="#FFFFFF" stroke="#D7DEE8"/>
  <text x="324" y="150" font-family="Inter, Arial, sans-serif" font-size="15" font-weight="700" fill="#111827">Band Timeline And Handoff Map</text>
  <rect x="324" y="176" width="684" height="168" rx="8" fill="#F9FAFB" stroke="#E5E7EB"/>
  <text x="348" y="210" font-family="Inter, Arial, sans-serif" font-size="13" font-weight="700" fill="#111827">Handoff Flow</text>
  <rect x="348" y="236" width="116" height="48" rx="8" fill="#FFFFFF" stroke="#CBD5E1"/>
  <text x="374" y="266" font-family="Inter, Arial, sans-serif" font-size="12" fill="#111827">Assessment</text>
  <line x1="464" y1="260" x2="530" y2="260" stroke="#64748B" stroke-width="2"/>
  <rect x="530" y="220" width="102" height="48" rx="8" fill="#FFFFFF" stroke="#CBD5E1"/>
  <text x="566" y="250" font-family="Inter, Arial, sans-serif" font-size="12" fill="#111827">Legal</text>
  <rect x="530" y="284" width="102" height="48" rx="8" fill="#FFFFFF" stroke="#CBD5E1"/>
  <text x="552" y="314" font-family="Inter, Arial, sans-serif" font-size="12" fill="#111827">Technical</text>
  <line x1="632" y1="244" x2="720" y2="276" stroke="#64748B" stroke-width="2"/>
  <line x1="632" y1="308" x2="720" y2="276" stroke="#64748B" stroke-width="2"/>
  <rect x="720" y="252" width="132" height="48" rx="8" fill="#FFFBEB" stroke="#FBBF24"/>
  <text x="742" y="282" font-family="Inter, Arial, sans-serif" font-size="12" fill="#92400E">Communications</text>
  <line x1="852" y1="276" x2="906" y2="276" stroke="#64748B" stroke-width="2"/>
  <rect x="906" y="252" width="84" height="48" rx="8" fill="#FFFFFF" stroke="#CBD5E1"/>
  <text x="921" y="282" font-family="Inter, Arial, sans-serif" font-size="12" fill="#111827">Escalate</text>

  <g font-family="Inter, Arial, sans-serif" font-size="13">
    <rect x="324" y="372" width="684" height="72" rx="8" fill="#FFFFFF" stroke="#E5E7EB"/>
    <text x="348" y="402" font-weight="700" fill="#111827">02:47 AM Assessment posted incident context</text>
    <text x="348" y="424" fill="#4B5563">High severity / Payment system / 50,000 potentially exposed records</text>
    <rect x="324" y="460" width="684" height="72" rx="8" fill="#FFFFFF" stroke="#E5E7EB"/>
    <text x="348" y="490" font-weight="700" fill="#111827">02:51 AM Legal posted obligations packet</text>
    <text x="348" y="512" fill="#4B5563">Possible GDPR 72h review and SEC materiality review route</text>
    <rect x="324" y="548" width="684" height="72" rx="8" fill="#FFFFFF" stroke="#E5E7EB"/>
    <text x="348" y="578" font-weight="700" fill="#111827">02:52 AM Technical posted scope packet</text>
    <text x="348" y="600" fill="#4B5563">12,400 EU records confirmed / breach contained / confidence high</text>
    <rect x="324" y="636" width="684" height="72" rx="8" fill="#FFFBEB" stroke="#FBBF24"/>
    <text x="348" y="666" font-weight="700" fill="#92400E">02:54 AM Communications draft needs review</text>
    <text x="348" y="688" fill="#92400E">Regulator draft uses Legal + Technical outputs</text>
    <rect x="324" y="724" width="684" height="72" rx="8" fill="#EFF6FF" stroke="#93C5FD"/>
    <text x="348" y="754" font-weight="700" fill="#1D4ED8">02:55 AM Escalation decision required</text>
    <text x="348" y="776" fill="#1D4ED8">Notify customers proactively before card-brand confirmation?</text>
  </g>

  <rect x="1056" y="116" width="360" height="820" rx="8" fill="#FFFFFF" stroke="#D7DEE8"/>
  <text x="1080" y="150" font-family="Inter, Arial, sans-serif" font-size="15" font-weight="700" fill="#111827">Decision Desk</text>
  <rect x="1080" y="176" width="314" height="150" rx="8" fill="#EFF6FF" stroke="#93C5FD"/>
  <text x="1104" y="206" font-family="Inter, Arial, sans-serif" font-size="13" font-weight="700" fill="#1D4ED8">Human Decision Required</text>
  <text x="1104" y="232" font-family="Inter, Arial, sans-serif" font-size="12" fill="#1E3A8A">Customer notification timing</text>
  <text x="1104" y="254" font-family="Inter, Arial, sans-serif" font-size="12" fill="#1E3A8A">Legal: review required</text>
  <text x="1104" y="276" font-family="Inter, Arial, sans-serif" font-size="12" fill="#1E3A8A">Technical: scope high confidence</text>
  <rect x="1104" y="292" width="104" height="24" rx="6" fill="#FFFFFF" stroke="#93C5FD"/>
  <text x="1126" y="309" font-family="Inter, Arial, sans-serif" font-size="11" fill="#1D4ED8">Approve</text>
  <rect x="1216" y="292" width="124" height="24" rx="6" fill="#FFFFFF" stroke="#93C5FD"/>
  <text x="1232" y="309" font-family="Inter, Arial, sans-serif" font-size="11" fill="#1D4ED8">Request more</text>

  <rect x="1080" y="350" width="314" height="238" rx="8" fill="#FFFBEB" stroke="#FBBF24"/>
  <text x="1104" y="380" font-family="Inter, Arial, sans-serif" font-size="13" font-weight="700" fill="#92400E">Draft Review</text>
  <rect x="1104" y="404" width="264" height="20" rx="4" fill="#FFFFFF" stroke="#FCD34D"/>
  <rect x="1104" y="436" width="244" height="12" rx="4" fill="#FDE68A"/>
  <rect x="1104" y="460" width="264" height="12" rx="4" fill="#FDE68A"/>
  <rect x="1104" y="484" width="220" height="12" rx="4" fill="#FDE68A"/>
  <text x="1104" y="530" font-family="Inter, Arial, sans-serif" font-size="12" fill="#92400E">Facts used + missing facts visible</text>
  <text x="1104" y="552" font-family="Inter, Arial, sans-serif" font-size="12" fill="#92400E">Draft only. Not sent.</text>

  <rect x="1080" y="612" width="314" height="150" rx="8" fill="#F9FAFB" stroke="#E5E7EB"/>
  <text x="1104" y="642" font-family="Inter, Arial, sans-serif" font-size="13" font-weight="700" fill="#111827">Evidence Summary</text>
  <text x="1104" y="670" font-family="Inter, Arial, sans-serif" font-size="12" fill="#4B5563">Payment token table accessed</text>
  <text x="1104" y="692" font-family="Inter, Arial, sans-serif" font-size="12" fill="#4B5563">12,400 EU records confirmed</text>
  <text x="1104" y="714" font-family="Inter, Arial, sans-serif" font-size="12" fill="#4B5563">Containment complete</text>
  <text x="1104" y="736" font-family="Inter, Arial, sans-serif" font-size="12" fill="#4B5563">Confidence: high</text>

  <rect x="1080" y="786" width="314" height="110" rx="8" fill="#F9FAFB" stroke="#E5E7EB"/>
  <text x="1104" y="816" font-family="Inter, Arial, sans-serif" font-size="13" font-weight="700" fill="#111827">Audit Snapshot</text>
  <text x="1104" y="844" font-family="Inter, Arial, sans-serif" font-size="12" fill="#4B5563">5 agent outputs</text>
  <text x="1104" y="866" font-family="Inter, Arial, sans-serif" font-size="12" fill="#4B5563">1 decision pending</text>
  <text x="1104" y="888" font-family="Inter, Arial, sans-serif" font-size="12" fill="#4B5563">Band events linked</text>
</svg>
